<?xml version="1.0" encoding="utf-8"?>
<!-- Generator: Adobe Illustrator 27.5.0, SVG Export Plug-In . SVG Version: 6.00 Build 0)  -->
<svg version="1.1" id="Capa_1" xmlns="http://www.w3.org/2000/svg" xmlns:xlink="http://www.w3.org/1999/xlink" x="0px" y="0px"
	 viewBox="0 0 2180 2065" style="enable-background:new 0 0 2180 2065;" xml:space="preserve">
<path style="fill:#2D6C3F;" d="M1835.832,189.379c-44.527-49.828-114.184-66.555-178.742-64.742
	c15.313,3.809,30.711,7.129,46.422,8.766c19.426,5.488,33.984,20.27,49.254,32.57c31.508,24.957,55.711,58.23,74.477,93.461
	c40.359,83.414,32.301,181.566,3.895,267.328c-9.918,33.855-24.121,67.535-50.141,92.223c-20.621,27.973-49.074,48.063-75.316,70.32
	c-38.41,29.125-76.336,59.613-106.777,97.266c-35.891,35.188-53.156,85.414-92.184,117.629
	c68.988-18.453,135.68-52.309,208.609-51.156c11.813-1.063,21.328,6.504,28.449,15.004c18.285-13.813,29.477-34.832,43.551-52.574
	c74.957-110.727,113.379-244.192,119.258-377.125C1910.66,351.258,1896.453,256.246,1835.832,189.379z"/>
<path style="fill:#5EA05D;" d="M1383.824,580c-29.781,38.016-62.922,73.195-93.543,110.5c37.746-10.93,75.535-23.805,115.184-25.269
	c13.219-0.754,26.363-0.332,39.465,0.738c22.668-38.949,43.309-79.074,61.262-120.398c23.906-55.035,45.047-115.434,57.801-177.148
	c-11.773,12.645-24.246,24.609-35.813,37.441C1475.742,460.211,1430.738,520.973,1383.824,580z"/>
<path style="fill:#5EA05D;" d="M1572.645,191.598c-0.91-6.551-1.785-12.645-2.512-18.375c-1.637,0.297-3.277,0.582-4.91,0.895
	c-49.746,9.113-100.063,15.395-149.266,27.121c-63.152,16.371-125.281,37.84-183.125,68.199
	c-54.824,26.504-103.414,63.941-148.285,104.695c-42.703,40.809-77.402,90.898-95.367,147.5
	c-17.391,58.059-26.641,118.109-41.469,176.832c-5.793,27.129-8.758,54.832-10.039,82.535
	c-5.758,70.805-4.074,143.644,18.938,211.523c6.863,23.457,18.406,45.008,28.5,67.137c-7.258-0.047-14.473,0.266-21.688,1.016
	c3.984,5.973,8.059,11.906,12.394,17.656c7.344,9.563,15.621,18.41,22.832,28.105c-61.644,63.633-111.867,136.867-161.965,209.574
	c-28.992,42.906-47.207,91.527-67.273,138.906c0,0,1.766-1.813,5.07-4.977c6.559-6.375,12.918-12.109,18.965-17.184
	c19.668-17.016,50.395-41.309,88.414-63.816c3.738-9.773,9.953-18.41,15.363-27.309c27.875-46.68,61.953-89.203,95.766-131.691
	c19.113-23.363,38.055-46.996,59.293-68.5c5.137,0.707,10.227,1.414,15.363,2.117c22.633-23.629,46.949-45.664,72.801-65.684
	c88.328-114.461,183.137-224.316,262.855-344.926c10.5-15.891,20.68-32,30.535-48.313c-16.758-0.461-33.5-0.004-50.23,2.41
	c-41.555,6.199-82.84,17.438-119.793,37.75c-12.215,6.855-20.844,18.145-29.867,28.543
	c-65.141,75.891-116.656,162.941-157.23,254.188c-17.395,31.332-22.75,67.488-38.191,99.523
	c-3.32-40.484,14.031-78.941,26.773-116.516c19.953-42.398,41.109-84.211,64.875-124.57
	c35.844-59.609,78.195-115.148,125.316-166.215c5.805-6.816,13.234-13.453,13.992-22.965c6.766-46.777,7.168-94.57-0.266-141.305
	c-3.41-22.434-10.848-44.117-12.66-66.82c11.063,17.836,17.66,37.879,23.629,57.883c12.129,40.141,9.918,82.668,17.836,123.598
	c82.133-83.723,148.914-181.789,236.797-259.984c10.121-8.781,19.191-19.016,30.188-26.691
	C1576.418,306.141,1580.484,247.777,1572.645,191.598z"/>
<path style="fill:#3A7C4B;" d="M878.016,521.941c-1.902-27.215-22.742-46.734-34.121-70.055c0.754-2.035,2.305-6.063,3.102-8.098
	l0.133-0.355c-32.309-38.32-67.574-74.656-108.465-103.859c-25.492-18.188-54.297-32.129-85.188-37.883
	c-37.926-6.766-76.602-17.609-115.281-10.176c-24.059,3.465-46.289,13.496-67.297,25.199c25.305-9.332,63.738-0.391,63.738-0.391
	l0,0c24.637,3.871,50.836,24.676,67.063,85.691c16.777,22.172,25.535,50.977,22.926,78.723c-4.957,33.5-19.121,65.145-21.238,99.176
	c-3.144,53.945,4.777,107.84,17.301,160.234c5.129,21.199,7.078,43.148,14.602,63.727c5.973-6.063,11.105-12.922,13.676-21.106
	c8.363-24.43,22.125-46.379,32.391-69.922c14.25-21.285,26.109-44.031,40.094-65.449c-1.594,8.449-3.184,16.992-6.813,24.824
	c-15.625,34.652-30.938,69.48-45.449,104.613c-12.125,28.457-14.383,60.012-13.32,90.594c5.223,29.996,11.016,60,18.144,89.609
	c8.805,21.285,14.602,43.543,14.863,66.734c14.387-11.019,24.609-26.203,37.574-38.633c23.852-22.395,48.77-44.387,77.223-60.809
	c-18.723,26.949-47.707,44.652-66.734,71.34c-15.574,21.945-28.231,46.109-37.789,71.246c-3.188,21.859,0.219,43.984-0.711,65.977
	c0.266,35.754-7.434,70.855-13.539,105.906c-4.469,23.055-5.578,46.766-13.059,69.203c-0.219,17.75,4.164,34.965,8.414,52.039
	c79.07-153.727,137.234-339.039,137.234-339.039v0.004c1.16-7.703,3.223-15.246,6.496-22.461
	c21.77-53.414,37.039-109.527,43.059-166.969c8.586-52.969-4.473-105.984-5.707-158.953
	C860.934,621.731,880.539,572.875,878.016,521.941z"/>
<path style="fill:#80B964;" d="M542.445,1297.34c-39.207-31.063-77.484-63.945-121.383-88.285
	c-9.957-5.305-18.941-12.211-26.867-20.269c-22.961-23.055-46.066-47.211-60.137-76.953c-11.195-25.801-25.004-51.996-23.098-81.02
	c2.215-100.102-0.445-200.25-0.223-300.394c3.012-86.691,39.828-166.746,69.523-246.801c2.395-5.523,4.754-11.074,7.109-16.641
	c0.824-2.047,48.781-120.781,70.215-142.148c-22.93,15.387-42.246,35.555-60.422,56.168c-32.039,37.48-58.902,79.523-78.285,124.887
	c-22.477,54.688-33.898,113.238-40.355,171.828c-3.633,40.981-0.75,82.133,0.836,123.156c0.711,47.129,0.934,94.348-1.859,141.387
	c-1.457,37.137-9.73,74.391-2.742,111.477c5.445,26.73,8.148,54.609,21.02,79.125c17.617,37.477,49.879,65.004,82.137,89.652
	c58.059,43.719,124.746,73.422,188.785,107.004c5.617,2.789,11.367,5.266,17.301,7.391
	C575.105,1319.16,556.652,1310.086,542.445,1297.34z"/>
<path style="fill:#1B633B;" d="M1298.023,650.141c-7.922-40.93-5.711-83.457-17.84-123.598
	c-5.969-20.004-12.566-40.047-23.629-57.883c1.813,22.703,9.25,44.391,12.66,66.82c7.434,46.734,7.031,94.527,0.266,141.305
	c-0.758,9.512-8.188,16.148-13.992,22.965c-47.121,51.066-89.473,106.606-125.316,166.215
	c-23.766,40.359-44.922,82.172-64.875,124.57c-12.742,37.574-30.094,76.031-26.773,116.516
	c15.441-32.035,20.797-68.191,38.191-99.523c40.574-91.246,92.09-178.297,157.23-254.188c9.023-10.398,17.656-21.688,29.867-28.543
	c36.953-20.309,78.238-31.551,119.793-37.75c16.73-2.414,33.473-2.871,50.23-2.41c37.836,1.031,75.727,6.73,113.637,5.199
	c22.66-1.457,46.379,1.906,67.969-6.461c-26.992-4.293-54.469-2.301-81.512-5.969c-29.68-3.199-59.234-9.012-89-11.438
	c-13.102-1.07-26.246-1.492-39.465-0.738c-39.648,1.465-77.438,14.34-115.184,25.269c30.621-37.305,63.762-72.484,93.543-110.5
	c46.914-59.027,91.918-119.789,144.355-174.137c11.566-12.832,24.039-24.797,35.813-37.441c3.008-3.227,6-6.469,8.887-9.82
	c-2.762,1.438-5.355,3.105-7.875,4.867c-10.996,7.672-20.066,17.906-30.188,26.688
	C1446.934,468.352,1380.156,566.418,1298.023,650.141z"/>
<path style="fill:#2D6C3F;" d="M878.016,521.941c2.523,50.938-17.082,99.789-16.68,150.684
	c1.234,52.969,14.293,105.988,5.707,158.953c-6.02,57.441-21.289,113.555-43.059,166.969c-3.273,7.215-5.336,14.758-6.496,22.461
	v-0.004c0,0-58.164,185.313-137.234,339.043c9.602-0.887,19.203-0.926,28.848-1.105c3.32-4.953,8.102-8.5,13.234-11.332
	c26.992-15.129,50.492-36.324,68.856-61.195c26.863-33.945,46.91-72.535,71.426-108.109c28.852-46.512,71.332-84.836,89.387-137.629
	c-3.297-7.832-6.207-15.777-8.84-23.793c-81.027-191.793-53.957-365.266-22.746-467.531c-22.16-36.715-46.031-72.508-73.422-105.563
	c-0.797,2.035-2.348,6.066-3.102,8.098C855.273,475.207,876.113,494.727,878.016,521.941z"/>
<path style="fill:#5EA15C;" d="M630.066,1342.789c7.875-1.457,6.238-11.016,8.852-16.727c1.551-1.324,4.601-3.984,6.152-5.309
	c3.141-22.742-0.887-45.582-0.313-68.414c0.574-32.578-3.363-65.012-8.184-97.184c-6.992-40.18-12.66-80.723-23.898-119.973
	c-12.785-95.93-80.769-170.066-119.758-205.469c-9.539-7.184-18.77-14.766-27.563-22.871c-20.84-20-38.145-44.344-46.02-72.398
	c16.371,17.48,28.277,38.813,46.289,54.871c46.465,44.391,108.066,66.953,158.383,106.074
	c-8.984-70.004-19.871-139.836-32.57-209.27c-5.094-28.898-4.648-58.328-8.144-87.402c2.789-43.055,14.644-84.695,24.691-126.426
	c4.559-17.129,0.664-34.648-3.316-51.469c-1.238-6.238-2.168-12.52-2.969-18.809c-16.23-61.016-42.426-81.816-67.063-85.691l0,0
	c0,0-38.434-8.941-63.738,0.391c-5.066,1.871-9.617,4.457-13.219,8.008l-0.094,0.105c-21.434,21.367-69.391,140.102-70.215,142.148
	c-2.355,5.566-4.715,11.117-7.109,16.641c-29.695,80.055-66.512,160.109-69.523,246.801c-0.223,100.144,2.438,200.293,0.223,300.394
	c-1.906,29.023,11.902,55.219,23.098,81.02c14.07,29.742,37.176,53.898,60.137,76.953c7.926,8.058,16.91,14.965,26.867,20.269
	c43.898,24.34,82.176,57.223,121.383,88.285c14.207,12.746,32.66,21.82,41.555,39.563c3.188,3.102,6.949,5.492,11.285,7.258
	c3.852-4.824,7.703-9.602,11.547-14.383C613.387,1335.578,619.668,1346.688,630.066,1342.789z M474.844,424.055
	c68.129-0.902,84.414,141.793,83.988,189.141c-0.34,37.688-10.945,76.387-35.738,104.766c-2.75,3.148-5.805,6.254-9.719,7.719
	c-8.879,3.313-18.266-2.754-25.801-8.504c-37.43-28.531-77.039-60.148-90.215-105.328
	C383.25,563.445,406.129,424.969,474.844,424.055z M539.027,1144.719c-5.32,20.406-28.156,31.5-49.203,32.859
	c-32.359,2.082-64.313-12.723-87.73-35.145c-23.414-22.434-39.07-51.871-50.203-82.324c-13.352-36.508-20.527-75.211-21.523-114.051
	c-0.648-25.344-4.641-84.699,17.129-103.102c45.164-38.176,121.004,76.016,137.02,105.59
	c27.965,51.648,42.797,109.352,53.52,167.098C539.824,1125.262,541.496,1135.258,539.027,1144.719z"/>
<path style="fill:#4F9255;" d="M671.84,1308.004c-3.535-51.242,3.539-102.355,6.109-153.469
	c4.469-49.121-5.313-97.973-16.375-145.586c-8.32-27.313-11.418-57.578-29.203-80.902c-22.703-26.855-53.195-45.484-83.551-62.395
	c-19.383-10.754-38.199-22.617-55.902-35.941c38.988,35.406,106.973,109.543,119.758,205.473
	c11.238,39.25,16.906,79.793,23.898,119.973c4.82,32.172,8.758,64.605,8.184,97.18c-0.574,22.836,3.453,45.676,0.313,68.418
	c-0.531,12.613-1.461,25.266-4.34,37.613c11.863,8.895,26.375,3.848,39.523,1.676
	C676.004,1342.969,671.621,1325.754,671.84,1308.004z"/>
<path style="fill:#235F36;" d="M1745.988,873.223h-0.219l-1.992-5.176c-7.121-8.5-16.637-16.066-28.449-15.004
	c-72.93-1.152-139.621,32.703-208.609,51.156c-19.957,7.48-39.832,15.133-59.922,22.215
	c-72.836,28.852-148.242,52.527-215.598,93.418c-32.047,16.453-62.332,36.027-90.754,58.043
	c-25.852,20.02-50.168,42.055-72.801,65.684c-35.359,35.453-61.074,81.738-66.914,131.879c10.84,5.66,21.461,12.211,33.41,15.445
	c14.207,1.418,28.496-4.383,42.66-0.66c4.695-8.195,9.422-16.688,17.168-22.352c18.23-13.855,31.82-32.613,49.785-46.734
	c39.031-30.445,73.508-66.473,115.68-92.887c13.363-9.512,29.824-14.695,41.113-27.082c2.34,0.883,7.074,2.609,9.469,3.496
	c0,0,273.145-205.566,441.859-204.496C1750.328,891.055,1748.383,882.07,1745.988,873.223z"/>
<path style="fill:#3A7E4C;" d="M1752.145,899.863l-0.27,0.305c-168.715-1.07-441.859,204.496-441.859,204.496
	c-16.156,10.976-31.598,22.926-46.293,35.758c14.824-1.328,30.543-2.566,43.898,5.484c17.484,8.277,31.113,22.172,46.469,33.414
	c30.848,12.918,64.078,20.621,93.152,37.527c-9.469-0.801-18.988-1.77-28.102-4.383c-30.891-8.766-62.172-16.156-92.535-26.727
	c-18.445-6.504-38.141-9.52-57.703-7.84c-18.586,4.164-41.332-5.305-56.422,9.43c-27.086,24.605-56.289,47.086-79.965,75.23
	c-18.762,15.711-41.82,25.621-62.219,39.207c1.637-2.875,4.867-8.672,6.504-11.543c-14.164-3.723-28.453,2.078-42.66,0.66
	c-11.949-3.234-22.57-9.785-33.41-15.445c-0.621,14.34,0.883,28.633,2.301,42.879c-2.652,0.629-5.258,1.379-7.891,2.066
	c-2.414,2.648-4.762,5.336-7.133,7.813c-28.207,29.48-61.063,53.746-91.953,80.234c-17.07,14.641-33.77,29.988-48.231,47.258
	c-7.684,9.082-14.742,18.582-21.305,28.414c2.074-2.293,4.191-4.578,6.356-6.859c15.078-15.902,32.402-31.563,52.285-46.367
	c8.234-5.75,16.668-11.191,25.184-16.496c49.969-29.551,114.418-57.293,114.418-57.293c17.566,15.129,39.117,26.148,62.305,29.074
	c57.66,4.645,115.59-1.379,172.367-11.422c20.578-4.023,41.727-1.457,62.395-4.734c59.48-8.41,117.758-25.531,172.188-50.977
	c74.441-35.801,141.258-90.059,184.938-160.813C1727.277,1082.094,1764.449,991.555,1752.145,899.863z"/>
<path style="fill:#195634;" d="M1132.516,1262.559c23.676-28.145,52.879-50.625,79.965-75.23c15.09-14.734,37.836-5.266,56.422-9.43
	c19.563-1.68,39.258,1.336,57.703,7.84c30.363,10.57,61.645,17.961,92.535,26.727c9.113,2.613,18.633,3.582,28.102,4.383
	c-29.074-16.906-62.305-24.609-93.152-37.527c-15.355-11.242-28.984-25.137-46.469-33.414c-13.355-8.051-29.074-6.813-43.898-5.484
	c14.695-12.832,30.137-24.781,46.293-35.758c-2.395-0.887-7.129-2.613-9.469-3.492c-11.289,12.383-27.75,17.566-41.113,27.078
	c-42.172,26.414-76.648,62.441-115.68,92.887c-17.965,14.113-31.555,32.879-49.785,46.734c-7.746,5.664-12.473,14.156-17.168,22.352
	c-1.637,2.871-4.867,8.668-6.504,11.543C1090.695,1288.18,1113.754,1278.27,1132.516,1262.559z"/>
<path style="fill:#5C9F5A;" d="M709.102,1358.941c-9.645,0.18-19.25,0.219-28.848,1.102c-13.148,2.172-27.66,7.219-39.523-1.676
	c2.879-12.348,3.809-25,4.34-37.613c-1.551,1.324-4.602,3.984-6.152,5.305c-2.613,5.715-0.977,15.273-8.852,16.73
	c-10.398,3.898-16.68-7.211-23.234-13.012c-3.844,4.781-7.695,9.559-11.547,14.391l-0.133,0.168
	c13.942,7.129,27.258,15.492,40.359,24.074c-0.711,19.387-7.168,37.793-12.527,56.246c-13.938,46.203-24.203,93.555-29.734,141.473
	c0.129,5.535-4.121,9.164-8.141,12.266c-44.609,34.43-84.613,74.875-118.426,119.969c-26.238,36.777-51.289,75.977-62.262,120.277
	c16.328,8.324,32.617,17.125,49.914,23.406c11.289,4.121,14.785-10,19.34-17.074c29.031-60.809,65.848-118.867,114.793-165.508
	c0.66,33.188,1.945,66.598,9.383,99.078c0.422,3.605,1.664,7.57,1.773,11.363c34.992-47.438,46.656-81.441,46.656-81.441
	c3.199-12.859,6.68-25.168,10.371-36.984c-0.887-21.438,0.734-42.906,1.207-64.367c-1.195-21.734,5.797-42.484,8.23-63.859
	C673.66,1466.961,692.375,1413.02,709.102,1358.941z"/>
<path style="fill:#4B8E53;" d="M657.859,1587.113c12.082-8.492,23.836-17.465,35.703-26.27
	c22.394-43.254,47.34-76.023,70.523-100.43c-33.133,20.094-64.922,42.52-97.996,62.84
	C663.656,1544.629,656.664,1565.379,657.859,1587.113z"/>
<path style="fill:#4B8F51;" d="M759.25,1586.004c14.348-19.824,31.859-37.109,49.684-53.852c1.949,0.75,5.934,2.25,7.922,3
	c4.23-19.594,9.922-38.863,16.02-57.91c-2.164,2.281-4.281,4.566-6.356,6.859C794.344,1519.633,773.078,1555.875,759.25,1586.004z"
	/>
<path style="fill:#5DA05B;" d="M759.25,1586.004c-19.203,41.82-24.129,71.863-24.129,71.863
	c1.508,73.246,18.809,146.031,47.574,213.352c9.117,17.613,16.637,37.082,30.27,51.68c13.543-0.484,23.277-14.023,35.223-19.91
	c8.144-6.816,23.856-9.777,24.609-22.039c-69.789-99.656-78.949-229.402-55.941-345.797c-1.988-0.75-5.973-2.25-7.922-3
	C791.109,1548.895,773.598,1566.18,759.25,1586.004z"/>
<path style="fill:#5DA05B;" d="M670.246,1920.688c4.25,3.938,7.129,11.242,13.902,11.02c15.883-13.012,27.387-30.398,42.438-44.297
	c4.82-5.313,15.707-13.273,6.898-20.137c-23.094-22.977-37.758-52.328-51.078-81.652c-16.766,26.543-35.359,49.09-53.961,68.008
	C640.434,1877.117,653.484,1900.211,670.246,1920.688z"/>
<path style="fill:#83B966;" d="M943.164,1016.883c2.633,8.016,5.543,15.961,8.84,23.793c3.41,6.855,7.262,13.543,11.418,20
	c7.215-0.75,14.43-1.063,21.688-1.016c-10.094-22.129-21.637-43.68-28.5-67.133C933.602,924.644,931.914,851.805,937.672,781
	c1.281-27.703,4.246-55.406,10.043-82.535c14.824-58.719,24.074-118.773,41.465-176.832c17.965-56.602,52.664-106.691,95.367-147.5
	c44.871-40.754,93.461-78.191,148.285-104.695c57.844-30.359,119.973-51.828,183.125-68.199
	c49.203-11.727,99.52-18.008,149.266-27.121c1.633-0.313,3.273-0.598,4.91-0.895c45.359-8.223,92.418-12.32,134.523-32.473
	c-0.258-1.859-0.836-5.535-1.145-7.348c-15.711-1.637-31.109-4.957-46.422-8.766c-18.672-0.797-37.348,1.641-55.977,2.394
	l0.531,0.75c-24.301-0.488-48.418,3.805-72.492,6.551c-98.637,12.922-196.57,34.914-289.059,72.043
	c-1.5,0.977-4.469,2.965-5.926,3.984c-16.867,4.992-32.441,13.363-48.238,20.977c-43.637,22.48-86.559,47.613-122.98,80.805
	c-42.402,40.633-78.301,88.605-104.242,141.395l-0.098,0.035c0,0-19.813,35.551-38.191,95.781
	C889.207,651.617,862.137,825.09,943.164,1016.883z"/>
<path style="fill:#195533;" d="M632.367,928.047c17.789,23.324,20.887,53.594,29.207,80.902
	c11.063,47.613,20.844,96.465,16.375,145.59c-2.57,51.109-9.644,102.223-6.109,153.465c7.481-22.43,8.59-46.148,13.059-69.203
	c6.106-35.051,13.805-70.145,13.539-105.906c0.93-21.992-2.477-44.117,0.711-65.977c9.559-25.137,22.215-49.301,37.789-71.246
	c19.027-26.688,48.012-44.387,66.734-71.34c-28.453,16.422-53.371,38.414-77.223,60.809c-12.965,12.43-23.188,27.613-37.574,38.633
	c-0.262-23.188-6.059-45.449-14.863-66.734c-7.129-29.609-12.922-59.613-18.144-89.609c-1.063-30.582,1.195-62.137,13.32-90.594
	c14.512-35.133,29.824-69.961,45.449-104.613c3.629-7.832,5.219-16.375,6.813-24.824c-13.984,21.418-25.844,44.164-40.094,65.449
	c-10.266,23.547-24.027,45.492-32.391,69.922c-2.566,8.184-7.703,15.043-13.676,21.106c-7.523-20.578-9.473-42.527-14.602-63.727
	c-12.523-52.394-20.445-106.289-17.301-160.234c2.117-34.031,16.281-65.676,21.238-99.176c2.609-27.746-6.148-56.551-22.926-78.723
	c0.801,6.289,1.731,12.57,2.969,18.809c3.98,16.82,7.875,34.34,3.316,51.469c-10.047,41.73-21.902,83.371-24.691,126.426
	c3.496,29.074,3.051,58.504,8.144,87.402c12.699,69.434,23.586,139.266,32.57,209.27c-50.316-39.121-111.918-61.684-158.383-106.074
	c-18.012-16.059-29.918-37.391-46.289-54.871c7.875,28.055,25.18,52.398,46.02,72.398c8.793,8.106,18.023,15.688,27.563,22.871
	c17.703,13.32,36.52,25.184,55.902,35.938C579.176,882.563,609.668,901.191,632.367,928.047z"/>
<path style="fill:#8CC068;" d="M881.859,1368.941c-38.02,22.508-68.746,46.801-88.414,63.816
	c-6.047,5.074-12.406,10.809-18.965,17.184c-3.305,3.164-5.07,4.977-5.07,4.977c-1.766,1.785-3.539,3.609-5.324,5.496
	c-23.184,24.406-48.129,57.172-70.523,100.43c-13.566,26.199-26.18,56.27-36.91,90.637c-3.691,11.816-7.172,24.125-10.371,36.984
	c0,0-11.664,34.004-46.656,81.441c-20.785,28.172-49.801,61.063-89.531,94.441c-11.508,8.051-22.895,16.234-32.965,25.895
	c-0.219,16.285,7.828,31.867,14.914,46.293c3.852,7.031,13.496,3.008,19.027,0.621c0,0,58.625-23.734,117.375-83.527
	c18.602-18.922,37.195-41.465,53.961-68.004c22.258-35.23,41.285-77.496,52.715-127.758c0,0,4.926-30.043,24.129-71.863
	c13.828-30.129,35.094-66.371,67.269-101.902c6.563-9.832,13.621-19.332,21.305-28.414c14.461-17.27,31.16-32.617,48.231-47.258
	c30.891-26.488,63.746-50.754,91.953-80.234c2.371-2.477,4.719-5.164,7.133-7.813
	C953.574,1331.215,914.953,1349.344,881.859,1368.941z"/>
<path style="fill:#3A7C4B;" d="M1827.242,259.434c-18.766-35.23-42.969-68.504-74.477-93.461
	c-15.27-12.301-29.828-27.082-49.254-32.57c0.309,1.813,0.887,5.488,1.145,7.348c-42.105,20.152-89.164,24.246-134.523,32.473
	c0.727,5.73,1.602,11.824,2.512,18.375c7.84,56.18,3.773,114.543-7.641,171.867c2.52-1.758,5.113-3.43,7.875-4.863
	c-2.887,3.352-5.879,6.59-8.887,9.82c-12.754,61.715-33.895,122.113-57.801,177.148c-17.953,41.324-38.594,81.449-61.262,120.398
	c29.766,2.426,59.32,8.234,89,11.438c27.043,3.668,54.52,1.676,81.512,5.969c-21.59,8.367-45.309,5-67.969,6.461
	c-37.91,1.531-75.801-4.172-113.637-5.199c-9.855,16.313-20.035,32.422-30.535,48.313
	c-79.719,120.609-174.527,230.465-262.855,344.926c28.422-22.016,58.707-41.59,90.754-58.043
	c67.355-40.891,142.762-64.566,215.598-93.418c20.09-7.082,39.965-14.734,59.922-22.215c39.027-32.215,56.293-82.441,92.184-117.629
	c30.441-37.652,68.367-68.141,106.777-97.266c26.242-22.258,54.695-42.348,75.316-70.32c26.02-24.688,40.223-58.367,50.141-92.223
	C1859.543,441,1867.602,342.848,1827.242,259.434z"/>
<path style="fill:#5EA05D;" d="M1662.242,958.805c-18.883-13.148-48.805,2.57-68.848,9.52
	c-54.57,18.949-106.164,46.496-152.168,81.449c-26.992,20.508-54.402,49.281-50.219,82.922
	c3.699,29.707,32.754,51.512,62.453,55.234c29.699,3.719,59.367-7.008,85.926-20.816c38.645-20.086,73.598-47.066,103.492-78.734
	c17.816-18.879,34.352-40.457,39.527-65.887C1686.656,1001.57,1681.09,971.926,1662.242,958.805z"/>
<path style="fill:#5EA05D;" d="M1357.75,1233.965c-29.707-23.324-93.41-27.648-127.371-14.129
	c-24.125,9.605-44.395,28.543-55.625,51.953c-5.676,11.836-8.965,26.227-2.824,37.832c7.953,15.02,27.605,18.766,44.602,19.172
	c45.93,1.098,92.098-9.742,132.723-31.191c8.348-4.41,16.844-9.621,21.496-17.84
	C1379.281,1264.715,1371.355,1244.645,1357.75,1233.965z"/>
<path style="fill:#83B966;" d="M1348.68,268.215c-34.309,32.898-53.922,78.875-62.168,125.688
	c-3.754,21.316-3.793,46.852,13.168,60.293c17.313,13.723,42.734,7.273,62.832-1.895c45.332-20.68,85.668-52.223,116.664-91.238
	c15.754-19.84,29.488-42.621,31.773-67.859C1520.066,192.379,1392.668,226.035,1348.68,268.215z"/>
<path style="fill:#83B966;" d="M1211.992,394.613c-48.625-36.148-114.941,57.422-135.633,91.082
	c-33.734,54.875-48.609,121.672-38.688,185.527c3.492,22.457,11.34,46.586,30.797,58.328c15.406,9.297,34.598,8.711,52.566,7.742
	c21.199-1.133,44.551-3.324,59.234-18.656c12.309-12.84,15.332-31.715,17.77-49.332c9.559-69.125,19.117-138.254,28.676-207.379
	C1230.023,437.984,1231.391,409.035,1211.992,394.613z"/>
<path style="fill:#83B966;" d="M474.844,424.055c-68.715,0.914-91.594,139.387-77.484,187.793
	c13.176,45.18,52.785,76.797,90.215,105.328c7.535,5.75,16.922,11.816,25.801,8.504c3.914-1.465,6.969-4.57,9.719-7.719
	c24.789-28.379,35.398-67.082,35.738-104.769C559.258,565.848,542.973,423.152,474.844,424.055z"/>
<path style="fill:#83B966;" d="M538.035,1115.645c-10.723-57.746-25.555-115.449-53.52-167.098
	c-16.016-29.574-91.855-143.766-137.02-105.59c-21.77,18.402-17.777,77.758-17.129,103.102c0.996,38.84,8.172,77.543,21.523,114.051
	c11.133,30.453,26.789,59.891,50.203,82.324c23.418,22.422,55.371,37.227,87.73,35.145c21.047-1.359,43.883-12.453,49.199-32.859
	C541.496,1135.258,539.824,1125.258,538.035,1115.645z"/>
<path style="fill:#C2DAA8;" d="M459.742,597.766c8.723-0.105,16.77-4.863,23.258-10.691c24.191-21.719,30.594-57.984,24.852-89.992
	c-2.016-11.207-5.527-22.566-13.098-31.07c-26.152-29.363-53.809-1.582-62.563,25.887c-4.891,15.34-5.852,31.633-6.141,47.73
	c-0.223,12.559,0.027,25.531,5.074,37.031C436.172,588.168,447.184,597.926,459.742,597.766z"/>
<path style="fill:#C2DAA8;" d="M459.805,636.922c-5.652,14.563,4.305,33.652,20.914,32.484c8.773-0.621,15.645-9.238,15.984-18.027
	C497.512,630.336,469.359,612.297,459.805,636.922z"/>
<path style="fill:#C2DAA8;" d="M434.758,935.824c-13.484-25.145-64.484-71.848-79.23-25.969
	c-12.488,38.848-1.004,86.402,25.707,116.609c7.641,8.637,17.777,16.68,29.301,16.082c14.195-0.734,24.367-14.199,29.398-27.496
	C449.594,989.527,447.652,959.871,434.758,935.824z"/>
<path style="fill:#C2DAA8;" d="M438.988,1123.699c16.832,13.277,31.195-6.18,21.16-22.941
	C441.238,1069.18,418.066,1107.191,438.988,1123.699z"/>
<path style="fill:#C2DAA8;" d="M1352.848,359.422c11.254,9.652,28.633,5.469,41.793-1.359
	c24.711-12.836,45.371-33.332,58.391-57.949c4.871-9.215,8.773-19.652,6.84-29.898c-6.688-35.469-57.543-16.969-74.551-3.09
	c-14.188,11.586-24.578,27.215-32.832,43.57c-3.953,7.836-7.523,16.09-8.215,24.848
	C1343.586,344.297,1346.188,353.707,1352.848,359.422z"/>
<path style="fill:#C2DAA8;" d="M1346.098,400.938c8.813-33.66-38.781-10.422-30.34,11.391
	C1324.223,434.242,1342.824,413.434,1346.098,400.938z"/>
<path style="fill:#C2DAA8;" d="M1141.141,523.559c8.656-2.355,16.027-8.051,22.41-14.359c7.484-7.383,14.07-16,17.293-26.016
	c5.285-16.402-1.684-40.535-21.469-43.355c-19.945-2.832-35.23,23.461-42.895,38.414c-6.445,12.578-10.109,29.445-0.348,39.652
	C1122.336,524.379,1132.48,525.926,1141.141,523.559z"/>
<path style="fill:#C2DAA8;" d="M1461.254,1135.98c-5.02,2.738-2.039-0.953-7.363,1.137c-10.254,4.043-13.711,19.352-6.188,27.41
	c7.523,8.051,23.023,5.645,27.754-4.313S1472.25,1136.723,1461.254,1135.98z"/>
<path style="fill:#2D6C3F;" d="M1718.996,591.207c6.594,12.832,21.473,21.684,35.629,18.899
	c15.613-3.066,25.824-18.203,31.535-33.051c9.18-23.875,5.691-81.055-34.016-68.07
	C1724.211,518.109,1706.145,566.199,1718.996,591.207z"/>
<path style="fill:#2D6C3F;" d="M1825.691,464.605c6.629-10.035,2.176-34.816-8.945-37.496c-14.57-3.504-31.695,18.324-28.309,31.328
	C1792.887,475.484,1816.031,479.238,1825.691,464.605z"/>
<path style="fill:#2D6C3F;" d="M1680.902,237.867c1.887,16.344,14.969,30.789,31.047,34.285c10.703,2.328,23.109-0.516,29.668-9.285
	c7.504-10.035,5.41-24.344,0.445-35.852c-3.32-7.691-7.891-15.063-14.52-20.18C1703.09,187.949,1677.691,209.984,1680.902,237.867z"
	/>
<path style="fill:#2D6C3F;" d="M1105.613,1322.734l0.164-3.359c-6.078-2.816-13.641-1.48-18.98,2.586
	c-5.348,4.059-8.582,10.5-9.633,17.125c-1.617,10.223,1.844,21.117,9.066,28.527c9.379,9.625,25.145,12.625,37.086,6.453
	c11.941-6.176,18.621-21.375,14.422-34.148C1133.531,1327.148,1118.477,1318.84,1105.613,1322.734z"/>
<path style="fill:#2D6C3F;" d="M1186.121,1345.559c-13.559-9.379-32.902,13.129-18.855,24.203
	C1182.352,1381.664,1202.23,1356.699,1186.121,1345.559z"/>
<path style="fill:#2D6C3F;" d="M1725.84,987.629c11.723-0.918,20.27-13.344,19.613-25.078
	C1741.59,893.504,1662.137,992.606,1725.84,987.629z"/>
<path style="fill:#2D6C3F;" d="M770.578,809.707c10.082,11.098,27.27,14.039,41.465,9.227c14.191-4.816,25.41-16.359,32.363-29.641
	c14.746-28.16,10.539-65.121-10.164-89.25c-44.684-52.09-74.926,40.406-74.742,73.699
	C759.57,786.578,761.949,800.207,770.578,809.707z"/>
<path style="fill:#2D6C3F;" d="M791.043,622.273c15.473,12.84,40.851-0.781,40.281-20.391
	C829.883,551.746,757.781,594.688,791.043,622.273z"/>
<path style="fill:#2D6C3F;" d="M831.434,501.398c7.773-6.598,8.797-18.316,6.887-28.336c-3.66-19.184-26.223-58.684-47.277-36.141
	c-15.203,16.277-6.234,45.609,6.605,59.445C806.207,505.586,821.844,509.535,831.434,501.398z"/>
<path style="fill:#2D6C3F;" d="M743.535,1069.016c0.695,16.145,19.898,44.254,35.477,23.766c3.969-5.215,5.613-11.871,6.059-18.406
	C787.582,1037.137,741.918,1031.621,743.535,1069.016z"/>
</svg>
